<?xml version="1.0" encoding="UTF-8"?>
<svg width="244px" height="34px" viewBox="0 0 244 34" version="1.1" xmlns="http://www.w3.org/2000/svg" xmlns:xlink="http://www.w3.org/1999/xlink">
    <!-- Generator: Sketch 52.6 (67491) - http://www.bohemiancoding.com/sketch -->
    <title>DFX-logo-v2</title>
    <desc>Created with Sketch.</desc>
    <defs>
        <linearGradient x1="-0.0712669683%" y1="50.0422323%" x2="100.013122%" y2="50.0422323%" id="linearGradient-1">
            <stop stop-color="#FD6B7A" offset="23.69%"></stop>
            <stop stop-color="#F16C83" offset="29.39%"></stop>
            <stop stop-color="#D07099" offset="39.79%"></stop>
            <stop stop-color="#9A75BE" offset="53.74%"></stop>
            <stop stop-color="#517CF0" offset="70.53%"></stop>
            <stop stop-color="#3F7EFD" offset="74.52%"></stop>
        </linearGradient>
    </defs>
    <g id="Symbols" stroke="none" stroke-width="1" fill="none" fill-rule="evenodd">
        <g id="Top-Nav" transform="translate(-52.000000, -38.000000)">
            <g id="DFX-logo-v2" transform="translate(52.000000, 38.000000)">
                <path d="M240.743957,9.18481013 L240.373952,9.18481013 L240.373952,5.02447257 L240.743957,5.02447257 L242.199309,8.23037975 L243.629995,5.02447257 L244,5.02447257 L244,9.18481013 L243.629995,9.18481013 L243.629995,5.78312236 L242.396645,8.57299578 L242.02664,8.57299578 L240.743957,5.78312236 L240.743957,9.18481013 Z M239.411939,5.34261603 L238.203256,5.34261603 L238.203256,9.18481013 L237.833251,9.18481013 L237.833251,5.34261603 L236.624568,5.34261603 L236.624568,5 L239.436606,5 L239.436606,5.34261603 L239.411939,5.34261603 Z M82.0611741,18.1662447 C82.0611741,17.7746835 81.9871732,17.3831224 81.8391712,16.9915612 C81.6911692,16.6 81.4691663,16.2329114 81.1484953,15.9147679 C80.8524914,15.5966245 80.4824864,15.3274262 80.0138135,15.1316456 C79.5451406,14.935865 79.0271337,14.8135021 78.4351258,14.8135021 C77.7937839,14.8135021 77.226443,14.9113924 76.7331031,15.1316456 C76.2397632,15.3274262 75.8204243,15.5966245 75.4997533,15.9147679 C75.1790824,16.2329114 74.9077454,16.5755274 74.7350765,16.9915612 C74.5624075,17.3831224 74.4637395,17.7746835 74.4637395,18.1662447 L82.0611741,18.1662447 Z M103.842131,18.1662447 C103.842131,17.7746835 103.76813,17.3831224 103.620128,16.9915612 C103.472126,16.6 103.250123,16.2329114 102.954119,15.9147679 C102.658115,15.5966245 102.288111,15.3274262 101.819438,15.1316456 C101.350765,14.935865 100.832758,14.8135021 100.24075,14.8135021 C99.599408,14.8135021 99.0320671,14.9113924 98.5387272,15.1316456 C98.0453873,15.3274262 97.6260483,15.5966245 97.3053774,15.9147679 C96.9847065,16.2329114 96.7133695,16.5755274 96.5407005,16.9915612 C96.3680316,17.3831224 96.2693636,17.7746835 96.2693636,18.1662447 L103.842131,18.1662447 Z M204.532807,18.1662447 C204.532807,17.7746835 204.458806,17.3831224 204.310804,16.9915612 C204.162802,16.6 203.940799,16.2329114 203.620128,15.9147679 C203.324124,15.5966245 202.954119,15.3274262 202.485446,15.1316456 C202.016774,14.935865 201.498767,14.8135021 200.906759,14.8135021 C200.265417,14.8135021 199.698076,14.9113924 199.204736,15.1316456 C198.711396,15.3274262 198.292057,15.5966245 197.971386,15.9147679 C197.650715,16.2329114 197.379378,16.5755274 197.206709,16.9915612 C197.03404,17.3831224 196.935372,17.7746835 196.935372,18.1662447 L204.532807,18.1662447 Z M149.352738,18.5333333 L146.442033,10.0413502 L143.50666,18.5333333 L149.352738,18.5333333 Z M51.8194376,9.28270042 L48.1440553,9.28270042 L48.1440553,23.8194093 L51.8194376,23.8194093 C54.3354711,23.8194093 56.2594968,23.2075949 57.5668476,22.0084388 C58.8988653,20.8092827 59.5402072,19.0472574 59.5402072,16.7223629 C59.5402072,14.4219409 58.9235323,12.6109705 57.7148495,11.2649789 C56.5061667,9.94345992 54.5328071,9.28270042 51.8194376,9.28270042 Z M118.691663,23.721519 C119.456339,24.3578059 120.640355,24.6759494 122.194376,24.6759494 C122.909719,24.6759494 123.526394,24.5291139 124.069068,24.2599156 C124.611741,23.9907173 125.080414,23.6236287 125.475086,23.1831224 C125.869758,22.742616 126.165762,22.228692 126.363098,21.6658228 C126.560434,21.1029536 126.659102,20.5156118 126.659102,19.9037975 C126.659102,19.243038 126.585101,18.6312236 126.437099,18.0683544 C126.289097,17.5054852 126.067094,16.9915612 125.746423,16.5755274 C125.425752,16.1594937 125.006413,15.8168776 124.513074,15.5476793 C123.995067,15.3029536 123.378392,15.1805907 122.638382,15.1805907 C122.046374,15.1805907 121.5037,15.3029536 121.01036,15.5476793 C120.51702,15.7924051 120.122348,16.1105485 119.77701,16.5265823 C119.431672,16.9181435 119.160335,17.3586498 118.987667,17.8236287 C118.790331,18.2886076 118.71633,18.7535865 118.71633,19.1940928 L118.71633,23.721519 L118.691663,23.721519 Z M179.668476,15.2540084 C179.668476,15.2540084 178.583128,15.2540084 177.793784,15.2540084 C177.374445,15.2540084 177.029107,14.9113924 177.029107,14.4953586 C177.029107,14.0059072 177.029107,13.3696203 177.029107,12.8801688 C177.029107,12.464135 177.374445,12.121519 177.793784,12.121519 C178.583128,12.121519 179.668476,12.121519 179.668476,12.121519 L179.668476,11.142616 C179.668476,10.0168776 179.841145,9.08691983 180.186482,8.30379747 C180.53182,7.52067511 181.000493,6.88438819 181.543167,6.39493671 C182.085841,5.90548523 182.702516,5.53839662 183.393192,5.31814346 C184.083868,5.0978903 184.749877,5 185.415886,5 C186.131228,5 186.895905,5.0978903 187.75925,5.29367089 C188.400592,5.44050633 189.017267,5.70970464 189.633942,6.1257384 C189.806611,6.24810127 189.905279,6.41940928 189.954613,6.61518987 C189.97928,6.81097046 189.954613,7.00675105 189.831278,7.17805907 C189.535274,7.59409283 189.140602,8.15696203 188.844598,8.57299578 C188.622595,8.89113924 188.203256,8.98902954 187.857918,8.81772152 C187.685249,8.71983122 187.487913,8.6464135 187.290577,8.57299578 C186.871238,8.42616034 186.476566,8.35274262 186.057227,8.35274262 C185.292551,8.35274262 184.675876,8.59746835 184.23187,9.08691983 C183.787864,9.57637131 183.565861,10.2860759 183.565861,11.2160338 L183.565861,12.0970464 C183.565861,12.0970464 185.637889,12.0970464 186.797237,12.0970464 C187.216576,12.0970464 187.561914,12.4396624 187.561914,12.8556962 C187.561914,13.3451477 187.561914,13.9814346 187.561914,14.4708861 C187.561914,14.8869198 187.216576,15.2295359 186.797237,15.2295359 C185.637889,15.2295359 183.590528,15.2295359 183.590528,15.2295359 C183.590528,15.2295359 183.590528,24.0396624 183.590528,26.707173 C183.590528,27.1232068 183.24519,27.4658228 182.825851,27.4658228 C182.135175,27.4658228 181.148495,27.4658228 180.457819,27.4658228 C180.038481,27.4658228 179.693143,27.1232068 179.693143,26.707173 C179.668476,24.064135 179.668476,15.2540084 179.668476,15.2540084 Z M164.448939,15.2540084 C164.448939,15.2540084 163.363592,15.2540084 162.574248,15.2540084 C162.154909,15.2540084 161.809571,14.9113924 161.809571,14.4953586 C161.809571,14.0059072 161.809571,13.3696203 161.809571,12.8801688 C161.809571,12.464135 162.154909,12.121519 162.574248,12.121519 C163.363592,12.121519 164.448939,12.121519 164.448939,12.121519 L164.448939,11.142616 C164.448939,10.0168776 164.621608,9.08691983 164.966946,8.30379747 C165.312284,7.52067511 165.780957,6.88438819 166.323631,6.39493671 C166.866305,5.90548523 167.48298,5.53839662 168.173656,5.31814346 C168.864332,5.0978903 169.53034,5 170.196349,5 C170.911692,5 171.676369,5.0978903 172.539714,5.29367089 C173.181056,5.44050633 173.797731,5.70970464 174.414406,6.1257384 C174.587074,6.24810127 174.685742,6.41940928 174.735076,6.61518987 C174.759743,6.81097046 174.735076,7.00675105 174.611741,7.17805907 C174.315738,7.59409283 173.921066,8.15696203 173.625062,8.57299578 C173.403059,8.89113924 172.98372,8.98902954 172.638382,8.81772152 C172.465713,8.71983122 172.268377,8.6464135 172.071041,8.57299578 C171.651702,8.42616034 171.25703,8.35274262 170.837691,8.35274262 C170.073014,8.35274262 169.456339,8.59746835 169.012333,9.08691983 C168.568328,9.57637131 168.321658,10.2860759 168.321658,11.2160338 L168.321658,12.0970464 C168.321658,12.0970464 170.393685,12.0970464 171.553034,12.0970464 C171.972373,12.0970464 172.317711,12.4396624 172.317711,12.8556962 C172.317711,13.3451477 172.317711,13.9814346 172.317711,14.4708861 C172.317711,14.8869198 171.972373,15.2295359 171.553034,15.2295359 C170.393685,15.2295359 168.346325,15.2295359 168.346325,15.2295359 C168.346325,15.2295359 168.346325,24.0396624 168.346325,26.707173 C168.346325,27.1232068 168.000987,27.4658228 167.581648,27.4658228 C166.890972,27.4658228 165.904292,27.4658228 165.213616,27.4658228 C164.794277,27.4658228 164.448939,27.1232068 164.448939,26.707173 C164.448939,24.064135 164.448939,15.2540084 164.448939,15.2540084 Z M52.1894425,27.4902954 L44.7646769,27.4902954 C44.3453379,27.4902954 44,27.1476793 44,26.7316456 C44,23.3544304 44,9.74767932 44,6.37046414 C44,5.95443038 44.3453379,5.61181435 44.7646769,5.61181435 C46.8120375,5.61181435 52.2387765,5.61181435 52.2387765,5.61181435 C53.9654662,5.61181435 55.5441539,5.83206751 56.9748397,6.27257384 C58.4055254,6.71308017 59.6388752,7.37383966 60.674889,8.27932489 C61.7109028,9.18481013 62.5249137,10.3350211 63.0922546,11.7299578 C63.6595955,13.1248945 63.9555994,14.7890295 63.9555994,16.6978903 C63.9555994,18.5088608 63.6595955,20.0995781 63.0675876,21.4455696 C62.4755797,22.7915612 61.6615688,23.9172996 60.625555,24.8227848 C59.5895412,25.72827 58.3315244,26.4135021 56.9008387,26.8540084 C55.4454859,27.2700422 53.8914652,27.4902954 52.1894425,27.4902954 Z M142.347311,21.9594937 L140.595955,27.0008439 C140.497287,27.3189873 140.201283,27.5147679 139.855945,27.5147679 C139.189936,27.5147679 138.00592,27.5147679 137.142575,27.5147679 C136.895905,27.5147679 136.649235,27.3924051 136.501233,27.1966245 C136.353231,27.0008439 136.328564,26.7316456 136.402565,26.4869198 C137.882585,22.5957806 143.136655,8.89113924 144.197336,6.1257384 C144.320671,5.83206751 144.592008,5.63628692 144.912679,5.63628692 C145.751357,5.63628692 147.330044,5.63628692 148.144055,5.63628692 C148.464726,5.63628692 148.76073,5.83206751 148.859398,6.1257384 C149.920079,8.89113924 155.149482,22.5957806 156.654169,26.4869198 C156.752837,26.7316456 156.703503,26.9763713 156.580168,27.1966245 C156.432166,27.3924051 156.210163,27.5147679 155.938826,27.5147679 C155.00148,27.5147679 153.694129,27.5147679 152.978786,27.5147679 C152.658115,27.5147679 152.362111,27.3189873 152.263444,27.0008439 L150.512087,21.9594937 L142.347311,21.9594937 Z M219.653675,19.7080169 C219.653675,19.7080169 215.928959,14.6666667 214.547607,12.7822785 C214.448939,12.6599156 214.424272,12.464135 214.498273,12.3172996 C214.572274,12.1704641 214.720276,12.0725738 214.892945,12.0725738 C215.978293,12.0725738 217.754317,12.0725738 218.543661,12.0725738 C218.790331,12.0725738 219.037,12.1949367 219.185002,12.3907173 C219.900345,13.4185654 222.071041,16.5265823 222.071041,16.5265823 C222.071041,16.5265823 224.266404,13.4185654 224.981746,12.3907173 C225.129748,12.1949367 225.351751,12.0725738 225.623088,12.0725738 C226.313764,12.0725738 227.793784,12.0725738 228.73113,12.0725738 C228.903799,12.0725738 229.051801,12.1704641 229.125802,12.3172996 C229.199803,12.464135 229.175136,12.635443 229.076468,12.7822785 C227.695116,14.5932489 224.143069,19.2919831 224.143069,19.2919831 C224.143069,19.2919831 228.213123,24.7738397 229.668476,26.7561181 C229.767144,26.878481 229.791811,27.0742616 229.71781,27.221097 C229.643809,27.3679325 229.495807,27.4658228 229.323138,27.4658228 C228.23779,27.4658228 226.461766,27.4658228 225.672422,27.4658228 C225.425752,27.4658228 225.179082,27.3434599 225.03108,27.1476793 C224.241737,26.0464135 221.725703,22.4489451 221.725703,22.4489451 C221.725703,22.4489451 219.160335,26.0464135 218.370992,27.1476793 C218.22299,27.3434599 218.000987,27.4658228 217.754317,27.4658228 C217.063641,27.4658228 215.583621,27.4658228 214.646275,27.4658228 C214.473606,27.4658228 214.325604,27.3679325 214.251603,27.221097 C214.177602,27.0742616 214.202269,26.9029536 214.300937,26.7561181 C215.731623,24.87173 219.653675,19.7080169 219.653675,19.7080169 Z M207.838185,24.7248945 C208.109521,25.0185654 208.084854,25.4835443 207.813518,25.7772152 C207.813518,25.7772152 207.788851,25.8016878 207.788851,25.8016878 C207.492847,26.0953586 207.048841,26.4135021 206.506167,26.7316456 C205.938826,27.049789 205.223483,27.3434599 204.360138,27.6126582 C203.496793,27.8818565 202.436112,28.0042194 201.22743,28.0042194 C199.99408,28.0042194 198.859398,27.8084388 197.848051,27.3924051 C196.836704,26.9763713 195.97336,26.4135021 195.258017,25.6793249 C194.542674,24.9451477 194,24.064135 193.605328,23.0362869 C193.210656,22.0084388 193.037987,20.8582278 193.037987,19.6101266 C193.037987,18.4599156 193.235323,17.4075949 193.605328,16.4531646 C194,15.4742616 194.542674,14.6421941 195.23335,13.9080169 C195.924026,13.1738397 196.762704,12.6109705 197.724716,12.1949367 C198.686729,11.778903 199.74741,11.5831224 200.906759,11.5831224 C202.312778,11.5831224 203.52146,11.8523207 204.50814,12.3662447 C205.49482,12.8801688 206.284164,13.5654008 206.876172,14.3729958 C207.46818,15.2050633 207.912185,16.1350211 208.158855,17.1873418 C208.430192,18.2396624 208.553527,19.3164557 208.553527,20.3932489 C208.553527,20.3932489 208.553527,20.3932489 208.553527,20.3932489 C208.553527,20.5400844 208.504193,20.6869198 208.380858,20.7848101 C208.28219,20.8827004 208.134188,20.9561181 207.986186,20.9561181 C205.667489,20.9561181 196.960039,20.9561181 196.960039,20.9561181 C196.960039,21.5189873 197.083374,22.0329114 197.330044,22.4978903 C197.576714,22.9628692 197.922052,23.3544304 198.316724,23.6725738 C198.736063,23.9907173 199.180069,24.2599156 199.698076,24.4312236 C200.216083,24.6025316 200.73409,24.7004219 201.22743,24.7004219 C201.96744,24.7004219 202.633448,24.6270042 203.200789,24.4801688 C203.76813,24.3333333 204.236803,24.1620253 204.631475,23.9907173 C205.026147,23.7949367 205.346818,23.5991561 205.618155,23.4033755 C205.618155,23.4033755 205.642822,23.378903 205.642822,23.378903 C205.963493,23.1097046 206.432166,23.1586498 206.703503,23.4523207 C207.048841,23.8438819 207.517514,24.3578059 207.838185,24.7248945 Z M107.270844,24.8472574 C107.492847,25.0919831 107.46818,25.4345992 107.246177,25.6793249 C107.196843,25.72827 107.147509,25.7772152 107.098175,25.8261603 C106.802171,26.1198312 106.358165,26.4379747 105.815491,26.7561181 C105.24815,27.0742616 104.532807,27.3679325 103.669462,27.6371308 C102.806117,27.9063291 101.745437,28.028692 100.536754,28.028692 C99.303404,28.028692 98.1687222,27.8329114 97.1573754,27.4168776 C96.1460286,27.0008439 95.2826838,26.4379747 94.5673409,25.7037975 C93.851998,24.9696203 93.3093241,24.0886076 92.9146522,23.0607595 C92.5199803,22.0329114 92.3473113,20.8827004 92.3473113,19.6345992 C92.3473113,18.4843882 92.5446473,17.4320675 92.9146522,16.4776371 C93.3093241,15.4987342 93.851998,14.6666667 94.5426739,13.9324895 C95.2333498,13.1983122 96.0720276,12.635443 97.0340405,12.2194093 C97.9960533,11.8033755 99.0567341,11.6075949 100.216083,11.6075949 C101.622102,11.6075949 102.830784,11.8767932 103.817464,12.3907173 C104.804144,12.9046414 105.593488,13.5898734 106.185496,14.3974684 C106.777504,15.2295359 107.22151,16.1594937 107.46818,17.2118143 C107.739517,18.264135 107.862852,19.3409283 107.862852,20.4177215 C107.862852,20.4177215 107.862852,20.4177215 107.862852,20.4177215 C107.862852,20.564557 107.813518,20.7113924 107.690183,20.8092827 C107.591515,20.907173 107.443513,20.9805907 107.295511,20.9805907 C104.976813,20.9805907 96.2693636,20.9805907 96.2693636,20.9805907 C96.2693636,21.5434599 96.3926986,22.057384 96.6393685,22.5223629 C96.8860385,22.9873418 97.2313764,23.378903 97.6260483,23.6970464 C98.0453873,24.0151899 98.4893932,24.2843882 99.0074001,24.4556962 C99.525407,24.6270042 100.043414,24.7248945 100.536754,24.7248945 C101.276764,24.7248945 101.942773,24.6514768 102.510113,24.5046414 C103.077454,24.3578059 103.546127,24.1864979 103.940799,24.0151899 C104.335471,23.8194093 104.656142,23.6236287 104.927479,23.4278481 C104.976813,23.378903 105.026147,23.3544304 105.075481,23.3054852 C105.322151,23.0852321 105.692156,23.1097046 105.914159,23.3544304 C106.308831,23.7949367 106.876172,24.4312236 107.270844,24.8472574 Z M85.3665516,24.7248945 C85.6378885,25.043038 85.6378885,25.5080169 85.3418846,25.8016878 C85.3418846,25.8016878 85.3172176,25.8261603 85.3172176,25.8261603 C85.0212136,26.1198312 84.5772077,26.4379747 84.0345338,26.7561181 C83.4671929,27.0742616 82.75185,27.3679325 81.8885052,27.6371308 C81.0251603,27.9063291 79.9644795,28.028692 78.7557967,28.028692 C77.522447,28.028692 76.3877652,27.8329114 75.3764184,27.4168776 C74.3650715,27.0008439 73.5017267,26.4379747 72.7863838,25.7037975 C72.0710409,24.9696203 71.528367,24.0886076 71.1336951,23.0607595 C70.7390232,22.0329114 70.5663542,20.8827004 70.5663542,19.6345992 C70.5663542,18.4843882 70.7636902,17.4320675 71.1336951,16.4776371 C71.528367,15.4987342 72.0710409,14.6666667 72.7617168,13.9324895 C73.4523927,13.1983122 74.2910705,12.635443 75.2530834,12.2194093 C76.2150962,11.8033755 77.275777,11.6075949 78.4351258,11.6075949 C79.8411445,11.6075949 81.0498273,11.8767932 82.0365072,12.3907173 C83.023187,12.9046414 83.8125308,13.5898734 84.4045387,14.3974684 C84.9965466,15.2295359 85.4405525,16.1594937 85.6872225,17.2118143 C85.9585594,18.264135 86.0818944,19.3409283 86.0818944,20.4177215 C86.0818944,20.4177215 86.0818944,20.4177215 86.0818944,20.4177215 C86.0818944,20.564557 86.0325604,20.7113924 85.9092255,20.8092827 C85.8105575,20.907173 85.6625555,20.9805907 85.5145535,20.9805907 C83.1958559,20.9805907 74.4884065,20.9805907 74.4884065,20.9805907 C74.4884065,21.5434599 74.6117415,22.057384 74.8584114,22.5223629 C75.1050814,22.9873418 75.4504193,23.378903 75.8450913,23.6970464 C76.2644302,24.0151899 76.7084361,24.2843882 77.226443,24.4556962 C77.7444499,24.6270042 78.2624568,24.7248945 78.7557967,24.7248945 C79.4958066,24.7248945 80.1618155,24.6514768 80.7291564,24.5046414 C81.2964973,24.3578059 81.7651702,24.1864979 82.1598421,24.0151899 C82.5545141,23.8194093 82.875185,23.6236287 83.146522,23.4278481 C83.146522,23.4278481 83.146522,23.4278481 83.1711889,23.4278481 C83.4918599,23.1586498 83.9851998,23.2075949 84.2565368,23.5012658 C84.6018747,23.8683544 85.0458806,24.3578059 85.3665516,24.7248945 Z M114.818944,12.8556962 C114.818944,12.6599156 114.892945,12.464135 115.040947,12.3172996 C115.188949,12.1704641 115.386285,12.0970464 115.583621,12.0970464 C116.24963,12.0970464 117.211643,12.0970464 117.852985,12.0970464 C118.272324,12.0970464 118.592995,12.4151899 118.617662,12.8067511 C118.642329,13.2962025 118.666996,13.8345992 118.666996,13.8345992 C118.864332,13.614346 119.111001,13.3940928 119.407005,13.1493671 C119.703009,12.9046414 120.048347,12.6843882 120.467686,12.4886076 C120.887025,12.292827 121.331031,12.121519 121.849038,11.9991561 C122.367045,11.8767932 122.934386,11.8033755 123.575728,11.8033755 C124.759743,11.8033755 125.795757,12.0236287 126.659102,12.4886076 C127.522447,12.9535865 128.262457,13.5654008 128.829798,14.2995781 C129.397139,15.0582278 129.841145,15.9147679 130.112481,16.8691983 C130.408485,17.8236287 130.53182,18.8270042 130.53182,19.8548523 C130.53182,21.0540084 130.359151,22.0818565 130.013814,22.9383966 C129.668476,23.7949367 129.22447,24.5291139 128.681796,25.1654008 C127.793784,26.2177215 126.831771,26.9518987 125.795757,27.3679325 C124.759743,27.7839662 123.674396,27.9797468 122.564381,27.9797468 C122.046374,27.9797468 121.627035,27.9552743 121.25703,27.9063291 C120.887025,27.857384 120.566354,27.8084388 120.27035,27.7350211 C119.974346,27.6616034 119.703009,27.5637131 119.431672,27.4658228 C119.185002,27.3679325 118.913666,27.2700422 118.617662,27.1476793 C118.617662,27.1476793 118.617662,31.4548523 118.617662,33.2413502 C118.617662,33.4371308 118.543661,33.6329114 118.395659,33.7797468 C118.247657,33.9265823 118.050321,34 117.852985,34 C117.186976,34 116.200296,34 115.50962,34 C115.312284,34 115.114948,33.9265823 114.966946,33.7797468 C114.818944,33.6329114 114.744943,33.4371308 114.744943,33.2413502 C114.818944,29.9130802 114.818944,16.257384 114.818944,12.8556962 Z" id="Shape" fill="#0F2147"></path>
                <g id="Group" fill-rule="nonzero">
                    <circle id="Oval" fill="#3F7EFD" cx="5.56344277" cy="16.202307" r="5.39263531"></circle>
                    <path d="M27.1583851,10.7852706 C24.1814552,10.7852706 21.7657498,8.36956522 21.7657498,5.39263531 C21.7657498,2.41570541 19.3500444,0 16.3731145,0 C13.3961846,0 10.9804791,2.41570541 10.9804791,5.39263531 C10.9804791,8.36956522 13.3961846,10.7852706 16.3731145,10.7852706 C19.3500444,10.7852706 21.7657498,13.200976 21.7657498,16.1779059 C21.7657498,19.1548358 19.3500444,21.5705413 16.3731145,21.5705413 C13.3961846,21.5705413 10.9804791,23.9862467 10.9804791,26.9631766 C10.9804791,29.9401065 13.3961846,32.3558119 16.3731145,32.3558119 C19.3500444,32.3558119 21.7657498,29.9401065 21.7657498,26.9631766 C21.7657498,23.9862467 24.1814552,21.5705413 27.1583851,21.5705413 C30.135315,21.5705413 32.5510204,19.1548358 32.5510204,16.1779059 C32.5510204,13.200976 30.135315,10.7852706 27.1583851,10.7852706 Z" id="Shape" fill="url(#linearGradient-1)"></path>
                </g>
            </g>
        </g>
    </g>
</svg>